<?xml version="1.0" encoding="UTF-8" standalone="no"?>
<!DOCTYPE svg PUBLIC "-//W3C//DTD SVG 1.1//EN"
 "http://www.w3.org/Graphics/SVG/1.1/DTD/svg11.dtd">
<!-- Generated by graphviz version 11.0.0 (20240428.1522)
 -->
<!-- Title: tree Pages: 1 -->
<svg width="278pt" height="404pt"
 viewBox="0.00 0.00 278.00 404.00" xmlns="http://www.w3.org/2000/svg" xmlns:xlink="http://www.w3.org/1999/xlink">
<g id="graph0" class="graph" transform="scale(1 1) rotate(0) translate(4 400)">
<title>tree</title>
<polygon fill="white" stroke="none" points="-4,4 -4,-400 274,-400 274,4 -4,4"/>
<!-- C_2279828488160 -->
<g id="node1" class="node">
<title>C_2279828488160</title>
<ellipse fill="none" stroke="black" cx="63" cy="-378" rx="27" ry="18"/>
<text text-anchor="middle" x="63" y="-372.57" font-family="Times New Roman,serif" font-size="14.00">C</text>
</g>
<!-- C_2279834933232 -->
<g id="node2" class="node">
<title>C_2279834933232</title>
<ellipse fill="none" stroke="black" cx="27" cy="-306" rx="27" ry="18"/>
<text text-anchor="middle" x="27" y="-300.57" font-family="Times New Roman,serif" font-size="14.00">C</text>
</g>
<!-- C_2279828488160&#45;&gt;C_2279834933232 -->
<g id="edge1" class="edge">
<title>C_2279828488160&#45;&gt;C_2279834933232</title>
<path fill="none" stroke="black" d="M54.65,-360.76C50.42,-352.55 45.19,-342.37 40.42,-333.09"/>
<polygon fill="black" stroke="black" points="43.68,-331.79 36,-324.49 37.46,-334.99 43.68,-331.79"/>
</g>
<!-- T_2279834933184 -->
<g id="node3" class="node">
<title>T_2279834933184</title>
<ellipse fill="none" stroke="black" cx="99" cy="-306" rx="27" ry="18"/>
<text text-anchor="middle" x="99" y="-300.57" font-family="Times New Roman,serif" font-size="14.00">T</text>
</g>
<!-- C_2279828488160&#45;&gt;T_2279834933184 -->
<g id="edge2" class="edge">
<title>C_2279828488160&#45;&gt;T_2279834933184</title>
<path fill="none" stroke="black" d="M71.35,-360.76C75.58,-352.55 80.81,-342.37 85.58,-333.09"/>
<polygon fill="black" stroke="black" points="88.54,-334.99 90,-324.49 82.32,-331.79 88.54,-334.99"/>
</g>
<!-- DP_2279834932896 -->
<g id="node4" class="node">
<title>DP_2279834932896</title>
<ellipse fill="none" stroke="black" cx="63" cy="-234" rx="27" ry="18"/>
<text text-anchor="middle" x="63" y="-228.57" font-family="Times New Roman,serif" font-size="14.00">DP</text>
</g>
<!-- T_2279834933184&#45;&gt;DP_2279834932896 -->
<g id="edge3" class="edge">
<title>T_2279834933184&#45;&gt;DP_2279834932896</title>
<path fill="none" stroke="black" d="M90.65,-288.76C86.42,-280.55 81.19,-270.37 76.42,-261.09"/>
<polygon fill="black" stroke="black" points="79.68,-259.79 72,-252.49 73.46,-262.99 79.68,-259.79"/>
</g>
<!-- T_2279834932704 -->
<g id="node5" class="node">
<title>T_2279834932704</title>
<ellipse fill="none" stroke="black" cx="135" cy="-234" rx="27" ry="18"/>
<text text-anchor="middle" x="135" y="-228.57" font-family="Times New Roman,serif" font-size="14.00">T</text>
</g>
<!-- T_2279834933184&#45;&gt;T_2279834932704 -->
<g id="edge4" class="edge">
<title>T_2279834933184&#45;&gt;T_2279834932704</title>
<path fill="none" stroke="black" d="M107.35,-288.76C111.58,-280.55 116.81,-270.37 121.58,-261.09"/>
<polygon fill="black" stroke="black" points="124.54,-262.99 126,-252.49 118.32,-259.79 124.54,-262.99"/>
</g>
<!-- T_2279834932320 -->
<g id="node6" class="node">
<title>T_2279834932320</title>
<ellipse fill="none" stroke="black" cx="99" cy="-162" rx="27" ry="18"/>
<text text-anchor="middle" x="99" y="-156.57" font-family="Times New Roman,serif" font-size="14.00">T</text>
</g>
<!-- T_2279834932704&#45;&gt;T_2279834932320 -->
<g id="edge5" class="edge">
<title>T_2279834932704&#45;&gt;T_2279834932320</title>
<path fill="none" stroke="black" d="M126.65,-216.76C122.42,-208.55 117.19,-198.37 112.42,-189.09"/>
<polygon fill="black" stroke="black" points="115.68,-187.79 108,-180.49 109.46,-190.99 115.68,-187.79"/>
</g>
<!-- v_2279834932560 -->
<g id="node7" class="node">
<title>v_2279834932560</title>
<ellipse fill="none" stroke="black" cx="171" cy="-162" rx="27" ry="18"/>
<text text-anchor="middle" x="171" y="-156.57" font-family="Times New Roman,serif" font-size="14.00">v</text>
</g>
<!-- T_2279834932704&#45;&gt;v_2279834932560 -->
<g id="edge6" class="edge">
<title>T_2279834932704&#45;&gt;v_2279834932560</title>
<path fill="none" stroke="black" d="M143.35,-216.76C147.58,-208.55 152.81,-198.37 157.58,-189.09"/>
<polygon fill="black" stroke="black" points="160.54,-190.99 162,-180.49 154.32,-187.79 160.54,-190.99"/>
</g>
<!-- v_2279834931888 -->
<g id="node8" class="node">
<title>v_2279834931888</title>
<ellipse fill="none" stroke="black" cx="135" cy="-90" rx="27" ry="18"/>
<text text-anchor="middle" x="135" y="-84.58" font-family="Times New Roman,serif" font-size="14.00">v</text>
</g>
<!-- v_2279834932560&#45;&gt;v_2279834931888 -->
<g id="edge7" class="edge">
<title>v_2279834932560&#45;&gt;v_2279834931888</title>
<path fill="none" stroke="black" d="M162.65,-144.76C158.42,-136.55 153.19,-126.37 148.42,-117.09"/>
<polygon fill="black" stroke="black" points="151.68,-115.79 144,-108.49 145.46,-118.99 151.68,-115.79"/>
</g>
<!-- V_2279834932416 -->
<g id="node9" class="node">
<title>V_2279834932416</title>
<ellipse fill="none" stroke="black" cx="207" cy="-90" rx="27" ry="18"/>
<text text-anchor="middle" x="207" y="-84.58" font-family="Times New Roman,serif" font-size="14.00">V</text>
</g>
<!-- v_2279834932560&#45;&gt;V_2279834932416 -->
<g id="edge8" class="edge">
<title>v_2279834932560&#45;&gt;V_2279834932416</title>
<path fill="none" stroke="black" d="M179.35,-144.76C183.58,-136.55 188.81,-126.37 193.58,-117.09"/>
<polygon fill="black" stroke="black" points="196.54,-118.99 198,-108.49 190.32,-115.79 196.54,-118.99"/>
</g>
<!-- V_2279834931744 -->
<g id="node10" class="node">
<title>V_2279834931744</title>
<ellipse fill="none" stroke="black" cx="171" cy="-18" rx="27" ry="18"/>
<text text-anchor="middle" x="171" y="-12.57" font-family="Times New Roman,serif" font-size="14.00">V</text>
</g>
<!-- V_2279834932416&#45;&gt;V_2279834931744 -->
<g id="edge9" class="edge">
<title>V_2279834932416&#45;&gt;V_2279834931744</title>
<path fill="none" stroke="black" d="M198.65,-72.76C194.42,-64.55 189.19,-54.37 184.42,-45.09"/>
<polygon fill="black" stroke="black" points="187.68,-43.79 180,-36.49 181.46,-46.99 187.68,-43.79"/>
</g>
<!-- DP_2279834932512 -->
<g id="node11" class="node">
<title>DP_2279834932512</title>
<ellipse fill="none" stroke="black" cx="243" cy="-18" rx="27" ry="18"/>
<text text-anchor="middle" x="243" y="-12.57" font-family="Times New Roman,serif" font-size="14.00">DP</text>
</g>
<!-- V_2279834932416&#45;&gt;DP_2279834932512 -->
<g id="edge10" class="edge">
<title>V_2279834932416&#45;&gt;DP_2279834932512</title>
<path fill="none" stroke="black" d="M215.35,-72.76C219.58,-64.55 224.81,-54.37 229.58,-45.09"/>
<polygon fill="black" stroke="black" points="232.54,-46.99 234,-36.49 226.32,-43.79 232.54,-46.99"/>
</g>
</g>
</svg>
